PathFileType	4	(X/Y/Z)	TVC_12_BWA3_walk_RCNL2025.trc
DataRate	CameraRate	NumFrames	NumMarkers	Units	OrigDataRate	OrigDataStartFrame	OrigNumFrames
100	100	7	27	mm	100	89	354
Frame#	Time	R_Shoulder			L_Shoulder			C7			J_Notch			R_Elbow			L_Elbow			R_Wrist			L_Wrist			R_Asis			L_Asis			R_Psis			L_Psis			Sacral			Thoracic			Sternum			R_Thigh_Lateral			R_Knee_Lateral			R_Shank_Lateral			R_Ankle_Lateral			R_Heel			R_Toe			L_Thigh_Lateral			L_Knee_Lateral			L_Shank_Lateral			L_Ankle_Lateral			L_Heel			L_Toe		
		X1	Y1	Z1	X2	Y2	Z2	X3	Y3	Z3	X4	Y4	Z4	X5	Y5	Z5	X6	Y6	Z6	X7	Y7	Z7	X8	Y8	Z8	X9	Y9	Z9	X10	Y10	Z10	X11	Y11	Z11	X12	Y12	Z12	X13	Y13	Z13	X14	Y14	Z14	X15	Y15	Z15	X16	Y16	Z16	X17	Y17	Z17	X18	Y18	Z18	X19	Y19	Z19	X20	Y20	Z20	X21	Y21	Z21	X22	Y22	Z22	X23	Y23	Z23	X24	Y24	Z24	X25	Y25	Z25	X26	Y26	Z26	X27	Y27	Z27
89	0.88000000	-1326.774658	1342.360352	453.116425	-1366.247559	1335.081421	37.259048	-1451.415771	1411.156860	255.006699	-1299.365356	1294.604370	246.083450	-1435.961792	1028.013672	542.657104	-1529.473145	1027.396484	4.509785	-1381.476685	782.661316	526.024200	-1505.100159	791.967743	54.960262	-1360.959717	906.542969	430.800629	-1392.975098	910.921814	81.650681	-1545.944580	945.834595	336.726379	-1561.115723	945.397644	229.193069	-1553.530151	945.616119	282.959724	-1541.717651	1160.281616	267.311401	-1218.082153	1102.696777	233.348083	-1471.915161	613.614868	457.953735	-1530.895996	485.507050	411.766144	-1660.591675	307.623016	460.416687	-1761.215942	115.408630	405.061096	-1796.247925	130.349991	345.107178	-1649.655884	40.586685	393.660522	-1345.019653	623.004456	17.043919	-1299.033813	477.198639	94.742226	-1322.133179	282.032532	49.986984	-1315.034790	68.234474	115.613907	-1358.081665	52.916500	169.102921	-1172.541748	40.579521	126.126015
90	0.89000000	-1318.274902	1344.459595	450.199829	-1359.714966	1336.561523	34.586185	-1443.985840	1412.418457	252.530518	-1291.738159	1296.154297	243.119446	-1428.608887	1030.548218	539.925659	-1522.855713	1028.808716	2.608926	-1376.659302	784.578827	522.211044	-1497.215454	793.616394	53.372618	-1352.524536	908.322266	428.444092	-1385.958496	911.924194	79.472664	-1538.122925	947.362000	335.345673	-1553.420654	946.904480	227.795578	-1545.771790	947.133240	281.570625	-1533.935181	1161.496826	265.569336	-1210.468140	1104.228394	230.364075	-1460.748535	613.688660	457.526031	-1517.379272	484.744110	411.648621	-1651.186035	309.934326	460.538086	-1755.801025	119.880478	405.393250	-1789.777100	136.273544	345.246002	-1648.187866	40.118267	393.664307	-1341.501953	622.097290	16.226526	-1295.524902	476.686157	93.953911	-1320.285278	281.999664	50.029373	-1314.960815	68.261993	115.786354	-1357.990479	53.015755	169.238678	-1172.708984	40.470890	126.393883
91	0.90000000	-1309.891968	1346.445679	447.365570	-1353.106567	1337.925537	31.961195	-1436.572388	1413.615601	250.084122	-1284.136108	1297.630493	240.232101	-1421.374146	1032.957275	537.241028	-1516.320435	1030.189331	0.640463	-1371.741699	786.446564	518.399490	-1489.343506	795.165436	51.812510	-1344.286743	910.004883	426.143188	-1378.824707	912.848206	77.423660	-1530.441406	948.774963	333.878571	-1545.806641	948.388489	226.315445	-1538.124023	948.581726	280.097008	-1526.214233	1162.668701	263.769440	-1202.888672	1105.668213	227.485580	-1448.779541	613.207458	457.094025	-1502.929810	483.551636	411.496307	-1641.057861	312.135468	460.577423	-1749.739624	124.530510	405.597412	-1782.510620	142.390640	345.219086	-1646.546753	39.718884	393.621124	-1340.261719	620.418823	15.875943	-1292.309937	476.168976	93.323761	-1318.541748	281.933075	50.167377	-1314.881470	68.263214	115.991119	-1357.895996	53.098228	169.400894	-1172.848633	40.284439	126.693695
92	0.91000000	-1301.642822	1348.289795	444.627960	-1346.411743	1339.135742	29.394852	-1429.178589	1414.729736	247.671753	-1276.567017	1299.006958	237.435638	-1414.272217	1035.202637	534.601685	-1509.837524	1031.492920	-1.395118	-1366.714661	788.229706	514.610443	-1481.526306	796.569397	50.297544	-1336.265503	911.560791	423.911285	-1371.577515	913.698425	75.524872	-1522.910156	950.047607	332.341309	-1538.287964	949.826355	224.765259	-1530.599060	949.936981	278.553284	-1518.566895	1163.781250	261.921783	-1195.351318	1106.991211	224.728088	-1435.882568	612.188782	456.592926	-1487.586304	481.969147	411.305176	-1630.155151	314.222992	460.534393	-1742.974731	129.377594	405.670105	-1774.435425	148.706497	345.043396	-1644.622192	39.489510	393.501434	-1340.907104	618.257202	15.953451	-1289.265747	475.698700	92.801323	-1316.826294	281.839264	50.335815	-1314.789917	68.244553	116.206177	-1357.802612	53.175217	169.569077	-1172.963745	40.050240	126.999466
93	0.92000000	-1293.540527	1349.969238	442.000153	-1339.623657	1340.164185	26.898808	-1421.807251	1415.746582	245.299271	-1269.037964	1300.262207	234.744141	-1407.313110	1037.253052	532.005371	-1503.375000	1032.681763	-3.493675	-1361.572937	789.897217	510.862747	-1473.794189	797.798615	48.837624	-1328.478882	912.965210	421.762726	-1364.231567	914.480896	73.788834	-1515.536743	951.162292	330.752411	-1530.877075	951.197693	223.160339	-1523.206909	951.179993	276.956375	-1511.003540	1164.822266	260.039246	-1187.864868	1108.176147	222.106552	-1421.974243	610.699646	455.957489	-1471.413086	480.058960	411.073669	-1618.429199	316.190979	460.410645	-1735.454712	134.431717	405.609039	-1765.557129	155.217377	344.741974	-1642.268921	39.547607	393.265961	-1342.812744	615.952942	16.372396	-1286.289062	475.304596	92.336464	-1315.072021	281.720490	50.479324	-1314.682861	68.212517	116.411720	-1357.714478	53.255997	169.724792	-1173.060181	39.797642	127.288948
94	0.93000000	-1285.594849	1351.468506	439.493866	-1332.738159	1340.992798	24.485100	-1414.461304	1416.656006	242.973846	-1261.555542	1301.379517	232.171112	-1400.501099	1039.084229	529.449646	-1496.900757	1033.725952	-5.647643	-1356.314575	791.423035	507.173203	-1466.155945	798.840271	47.430454	-1320.941528	914.199097	419.712921	-1356.809937	915.201477	72.218605	-1508.325439	952.109558	329.130951	-1523.584229	952.485657	221.517471	-1515.954834	952.297607	275.324211	-1503.532349	1165.783203	258.136353	-1180.438477	1109.206299	219.635132	-1407.031982	608.856384	455.129364	-1454.498901	477.904297	410.801086	-1605.843140	318.034119	460.208588	-1727.135620	139.688858	405.411896	-1755.898438	161.905304	344.340759	-1639.308594	40.016930	392.866699	-1345.208984	613.841431	16.991091	-1283.300537	474.994843	91.885284	-1313.224976	281.576538	50.556320	-1314.560059	68.173111	116.592400	-1357.635254	53.347549	169.853821	-1173.144165	39.551064	127.546074
95	0.94000000	-1277.812256	1352.778076	437.119293	-1325.754395	1341.613770	22.165646	-1407.143311	1417.452515	240.703674	-1254.124756	1302.348145	229.729156	-1393.835938	1040.679443	526.932739	-1490.383667	1034.604126	-7.846422	-1350.940308	792.786316	503.556290	-1458.588318	799.697632	46.057154	-1313.664185	915.249695	417.778076	-1349.342285	915.864990	70.807747	-1501.276978	952.887268	327.494781	-1516.416504	953.677185	219.853287	-1508.846741	953.282227	273.674034	-1496.159058	1166.659058	256.228302	-1173.081055	1110.070190	217.326904	-1391.108765	606.817200	454.065399	-1436.952881	475.605072	410.486359	-1592.379639	319.751221	459.929871	-1717.982422	145.126221	405.075867	-1745.494751	168.732941	343.865479	-1635.536743	41.012432	392.248596	-1347.277222	612.199463	17.617949	-1280.244629	474.759796	91.414345	-1311.248047	281.406525	50.540852	-1314.422974	68.131416	116.738457	-1357.566284	53.454269	169.947403	-1173.220703	39.328056	127.761795
